<?xml version="1.0" encoding="UTF-8"?>
<svg version="1.1" xmlns="http://www.w3.org/2000/svg" width="512" height="512">
<path d="M0 0 C0.66 0 1.32 0 2 0 C2 2.31 2 4.62 2 7 C1.34 7 0.68 7 0 7 C-0.01417969 7.79019531 -0.02835937 8.58039063 -0.04296875 9.39453125 C-0.5628461 21.68892806 -3.39672587 33.59110098 -8 45 C-8.88293579 47.79821045 -9.6913567 50.61705017 -10.5 53.4375 C-12.12878037 59.08887433 -13.8424368 64.68358142 -15.78125 70.23828125 C-17.06714751 73.94921374 -18.1681727 77.58405531 -18.9375 81.4375 C-19.81509591 85.65727369 -21.32655586 89.41691028 -22.98828125 93.3828125 C-24.37629528 96.97342796 -25.34052602 100.63218462 -26.2890625 104.359375 C-27.25972101 107.96467802 -28.47324352 111.47229436 -29.68994141 115.00097656 C-33.78471158 126.7506905 -33.78471158 126.7506905 -36.58203125 138.85546875 C-37.33042739 142.69537043 -38.70118065 146.31802589 -40 150 C-40.66988124 151.99892561 -41.33637361 153.99898914 -42 156 C-45 165 -48 174 -51 183 C-49.35 183.33 -47.7 183.66 -46 184 C-46 184.66 -46 185.32 -46 186 C-45.154375 186.0825 -44.30875 186.165 -43.4375 186.25 C-39.27886509 187.15733853 -36.60417301 188.76541273 -33 191 C-33 191.66 -33 192.32 -33 193 C-31.77410156 193.13728516 -31.77410156 193.13728516 -30.5234375 193.27734375 C-26.23761321 194.15636536 -22.58864469 195.7526984 -18.625 197.5625 C-17.88894531 197.89185547 -17.15289062 198.22121094 -16.39453125 198.56054688 C-14.59355443 199.36747805 -12.79637819 200.1828826 -11 201 C-11 201.66 -11 202.32 -11 203 C-9.69095703 203.1546875 -9.69095703 203.1546875 -8.35546875 203.3125 C-4.818237 204.03724131 -2.42274288 205.19545183 0.6875 207 C3.49205806 208.61368762 5.92616722 209.97538907 9 211 C9 211.66 9 212.32 9 213 C10.00675781 213.25265625 11.01351563 213.5053125 12.05078125 213.765625 C16.04598575 214.9096926 19.57323035 216.7275937 23.1875 218.75 C24.50847221 219.47122987 25.83009539 220.19126865 27.15234375 220.91015625 C27.80187012 221.26480957 28.45139648 221.61946289 29.12060547 221.98486328 C38.04803432 226.80692735 47.3564259 231.7854753 57 235 C57 235.66 57 236.32 57 237 C57.66 237.0825 58.32 237.165 59 237.25 C62.99039163 238.24759791 66.38549643 240.07166683 70 242 C70 242.66 70 243.32 70 244 C70.886875 244.28875 71.77375 244.5775 72.6875 244.875 C75.50382424 245.83148748 78.25083156 246.86798946 81 248 C81 248.66 81 249.32 81 250 C81.98033203 250.12181641 81.98033203 250.12181641 82.98046875 250.24609375 C87.08060164 251.26980093 90.57262393 253.12738986 94.3125 255.0625 C95.05306641 255.43955078 95.79363281 255.81660156 96.55664062 256.20507812 C98.37387522 257.13128157 100.18732404 258.06490629 102 259 C102 259.66 102 260.32 102 261 C102.5775 261.103125 103.155 261.20625 103.75 261.3125 C106.34291468 262.10477948 107.84795774 263.36966495 110 265 C110.886875 265.350625 111.77375 265.70125 112.6875 266.0625 C115 267 115 267 116 269 C109.97673595 269.17918177 104.52061632 268.58402898 98.625 267.375 C97.76156982 267.2011377 96.89813965 267.02727539 96.00854492 266.84814453 C89.22190343 265.41071121 82.70134388 263.45297747 76.17626953 261.10693359 C71.83383406 259.5498236 67.55657515 258.37642233 63.03051758 257.47070312 C60.39199656 256.85905607 57.93878357 255.84870571 55.42578125 254.8515625 C52.18657506 253.71444986 48.88290846 252.86122457 45.5625 252 C39.95498719 250.5417037 34.4692935 248.90900297 29 247 C27.00081086 246.33090566 25.00075372 245.66440123 23 245 C19.5 243.83333333 16 242.66666667 12.5 241.5 C11.79101562 241.26410156 11.08203125 241.02820313 10.3515625 240.78515625 C8.57450987 240.1918214 6.79867767 239.59482961 5.0234375 238.99609375 C-0.99119439 236.97380437 -6.9926048 235.034196 -13.13989258 233.44775391 C-22.68971058 230.93626068 -32.02752055 227.7837679 -41.39892578 224.68579102 C-53.05785165 220.829991 -53.05785165 220.829991 -65 218 C-67.47869057 221.50435563 -69.45525589 224.79140002 -71.07421875 228.7890625 C-73.22557507 233.9269008 -75.65308091 238.94918707 -78 244 C-78.66 244 -79.32 244 -80 244 C-80.3403125 245.9490625 -80.3403125 245.9490625 -80.6875 247.9375 C-81.66671036 252.35084246 -83.32909709 255.78093438 -85.625 259.6484375 C-87.96648827 263.6529146 -89.95769556 267.83717521 -92 272 C-92.66 272 -93.32 272 -94 272 C-94.13728516 273.25683594 -94.13728516 273.25683594 -94.27734375 274.5390625 C-95.10804213 278.5174342 -96.68464343 281.8126503 -98.5625 285.375 C-98.89185547 286.01566406 -99.22121094 286.65632813 -99.56054688 287.31640625 C-100.36639482 288.88138632 -101.18218493 290.44124021 -102 292 C-102.66 292 -103.32 292 -104 292 C-104.04125 292.928125 -104.0825 293.85625 -104.125 294.8125 C-104.78373968 299.48014119 -107.06604859 303.11681516 -109.37890625 307.16015625 C-113.03310621 313.56161016 -116.18739576 320.1905371 -119 327 C-119.66 327 -120.32 327 -121 327 C-121.33 328.98 -121.66 330.96 -122 333 C-122.99 333.33 -123.98 333.66 -125 334 C-125.09023437 334.68191406 -125.18046875 335.36382812 -125.2734375 336.06640625 C-126.17150669 339.69248131 -127.81789371 342.70357569 -129.625 345.9375 C-130.35181309 347.26738177 -131.07703699 348.59813313 -131.80078125 349.9296875 C-132.16768066 350.60354492 -132.53458008 351.27740234 -132.91259766 351.97167969 C-135.74028155 357.24612912 -138.348139 362.63585585 -141 368 C-141.53882813 369.07507813 -142.07765625 370.15015625 -142.6328125 371.2578125 C-143.46694427 372.93084251 -144.28200856 374.61378333 -145.0625 376.3125 C-146 378 -146 378 -148 379 C-148.33 379.99 -148.66 380.98 -149 382 C-149.99 382 -150.98 382 -152 382 C-152.24449818 377.84353089 -151.3078826 374.92364781 -150 371 C-149.5039859 368.36415647 -149.06827978 365.72504052 -148.66015625 363.07421875 C-147.94758056 359.75589289 -146.90882661 356.66264645 -145.80932617 353.45629883 C-144.40271921 349.1872573 -143.28100702 344.84225377 -142.125 340.5 C-138.8840435 328.49081966 -135.56974087 316.52924624 -131.5625 304.75 C-129.18683221 297.76493904 -127.16288905 290.70302691 -125.23071289 283.58300781 C-124.04079164 279.28590935 -122.71371153 275.15871646 -121.01171875 271.03515625 C-118.88349652 265.87455849 -117.34634522 260.62936267 -115.875 255.25 C-112.84875521 244.33999956 -112.84875521 244.33999956 -111 239 C-108.8735607 232.69543972 -106.7985451 226.40731691 -105 220 C-104.66742188 218.96488281 -104.33484375 217.92976562 -103.9921875 216.86328125 C-103.62351563 215.71214844 -103.25484375 214.56101562 -102.875 213.375 C-102.52179688 212.28960937 -102.16859375 211.20421875 -101.8046875 210.0859375 C-101.0582585 207.22341851 -100.83625523 204.93648963 -101 202 C-103.31 200.68 -105.62 199.36 -108 198 C-108 197.34 -108 196.68 -108 196 C-108.9075 196.061875 -109.815 196.12375 -110.75 196.1875 C-114.44283114 195.97445205 -115.21849109 195.25997599 -118 193 C-119.98014432 192.27648573 -121.97821315 191.59734611 -124 191 C-124 190.34 -124 189.68 -124 189 C-124.94875 188.87625 -125.8975 188.7525 -126.875 188.625 C-130 188 -130 188 -132 186 C-133.482236 185.37290015 -134.9860706 184.7961644 -136.5 184.25 C-141.27100955 182.41605702 -145.40192151 180.02932032 -149.7265625 177.328125 C-152.38298597 175.77626249 -155.02761071 174.78220771 -158 174 C-158 173.34 -158 172.68 -158 172 C-158.86109375 171.90203125 -159.7221875 171.8040625 -160.609375 171.703125 C-164.33963514 170.92956875 -166.94198021 169.62400136 -170.25 167.75 C-171.38953125 167.11707031 -172.5290625 166.48414063 -173.703125 165.83203125 C-174.79109375 165.22746094 -175.8790625 164.62289062 -177 164 C-182.27812573 161.24241635 -187.63726003 158.70379503 -193.0625 156.25 C-199.84051889 153.15010037 -206.39324059 149.67525039 -212.95703125 146.1484375 C-216.93228219 144.01755537 -220.95780531 142.00072794 -225 140 C-225 139.34 -225 138.68 -225 138 C-226.30904297 137.8453125 -226.30904297 137.8453125 -227.64453125 137.6875 C-231.181763 136.96275869 -233.57725712 135.80454817 -236.6875 134 C-239.49205806 132.38631238 -241.92616722 131.02461093 -245 130 C-245.495 129.01 -245.495 129.01 -246 128 C-249.77867953 125.44383443 -253.80709432 123.76543397 -258 122 C-263.72972973 119.40540541 -263.72972973 119.40540541 -266 116 C-257.55601976 115.68725999 -249.95808688 117.1815109 -242 120 C-236.7404206 121.75635774 -231.61630025 123.12530507 -226.125 123.9375 C-219.79856321 124.90641374 -214.01960262 126.88312093 -208 129 C-204.36540481 130.11984825 -200.6983644 131.11239254 -197 132 C-197 132.66 -197 133.32 -197 134 C-195.96875 134.0825 -194.9375 134.165 -193.875 134.25 C-184.34191015 135.43528648 -175.0526843 138.87897932 -166 142 C-164.62553263 142.45992815 -163.25050954 142.91819813 -161.875 143.375 C-159.06469236 144.31012864 -156.25625011 145.25037125 -153.44921875 146.1953125 C-147.08087844 148.33535975 -140.70776971 150.42378842 -134.26171875 152.3203125 C-130.47796813 153.45739818 -126.74116298 154.73102908 -123 156 C-121.45885593 156.52237767 -119.91718983 157.04321781 -118.375 157.5625 C-117.70210937 157.79066406 -117.02921875 158.01882812 -116.3359375 158.25390625 C-113.24399508 159.24146646 -110.12129394 160.10958938 -107 161 C-105.59033373 161.4270157 -104.1815055 161.85680574 -102.7734375 162.2890625 C-102.0515625 162.50820312 -101.3296875 162.72734375 -100.5859375 162.953125 C-99.10264537 163.40387808 -97.6208772 163.85967458 -96.140625 164.3203125 C-90.60604432 166.23178965 -90.60604432 166.23178965 -85 166 C-80.80660735 161.0953519 -78.2583785 154.68573126 -75.5625 148.875 C-75.17344482 148.04677734 -74.78438965 147.21855469 -74.38354492 146.36523438 C-72.08961308 141.45000503 -69.91035936 136.50173837 -67.8125 131.5 C-65.58784053 126.1993449 -63.04972187 121.19728213 -60.19921875 116.20703125 C-58.88075285 113.93405141 -58.88075285 113.93405141 -58 111 C-57.34 111 -56.68 111 -56 111 C-55.88011719 110.26910156 -55.76023437 109.53820312 -55.63671875 108.78515625 C-55.00412537 106.01804535 -54.12326888 103.94450455 -52.8125 101.4375 C-52.36390625 100.56738281 -51.9153125 99.69726562 -51.453125 98.80078125 C-50.97359375 97.87652344 -50.4940625 96.95226562 -50 96 C-49.0176658 94.04325364 -48.03858309 92.08487209 -47.0625 90.125 C-45.58166508 87.1595717 -44.09894042 84.19539351 -42.6015625 81.23828125 C-39.0177426 74.13994183 -35.59961738 66.97131799 -32.24682617 59.76147461 C-30.33242725 55.67694133 -28.32758207 51.71338995 -26.04931641 47.82055664 C-23.93064499 44.14467651 -21.97825341 40.37768677 -20 36.625 C-19.36191406 35.42617187 -19.36191406 35.42617187 -18.7109375 34.203125 C-16.20793492 29.45816918 -13.93486583 24.69103269 -11.89453125 19.72802734 C-11 18 -11 18 -9 17 C-8.11249875 15.36153616 -7.28694963 13.68906261 -6.5 12 C-4.22222222 7.11111111 -4.22222222 7.11111111 -2 6 C-1.27306096 4.02111039 -0.60183749 2.02045442 0 0 Z " fill="#008EAE" transform="translate(331,65)"/>
</svg>
